Coordinates
version=1
nRows=26
nColumns=24
inDegrees=yes

Units are S.I. units (second, meters, Newtons, ...)
Angles are in degrees.

endheader
time	pelvis_tilt	pelvis_list	pelvis_rotation	pelvis_tx	pelvis_ty	pelvis_tz	hip_flexion_r	hip_adduction_r	hip_rotation_r	knee_angle_r	ankle_angle_r	subtalar_angle_r	mtp_angle_r	hip_flexion_l	hip_adduction_l	hip_rotation_l	knee_angle_l	ankle_angle_l	subtalar_angle_l	mtp_angle_l	lumbar_extension	lumbar_bending	lumbar_rotation
      1.33333333	      4.01721274	      6.13115981	     -4.34897721	      0.21365605	      1.07059032	      0.31367867	     13.60015720	     -7.07218209	      2.58940037	    -69.20499272	     -2.68588326	    -14.38427200	      5.17728330	      3.40004431	     10.69342315	     -5.74331137	     -7.69390230	      1.91054904	     -0.54500683	     -1.27503146	     -0.89974378	     -3.68731671	     -0.29697324
      1.33750000	      4.05052756	      6.16375128	     -4.31901159	      0.21860772	      1.07106988	      0.31343414	     14.18900103	     -7.02024799	      2.79788642	    -69.10160519	     -2.32433576	    -14.43786439	      5.12177830	      2.99139346	     10.77721041	     -5.62002266	     -7.54276182	      2.02646516	     -0.45557875	     -1.30047200	     -0.97346097	     -3.65899985	     -0.35936694
      1.34166667	      4.06525289	      6.16137790	     -4.25733194	      0.22358085	      1.07154849	      0.31333914	     14.76098716	     -6.90736010	      2.98286020	    -68.93887018	     -1.68371865	    -14.43331304	      5.02081806	      2.60793422	     10.80044406	     -5.56585362	     -7.43466973	      2.25242872	     -0.39533717	     -1.35156850	     -1.03378844	     -3.70646856	     -0.44575860
      1.34583333	      4.08324263	      6.16761630	     -4.21160244	      0.22852485	      1.07200679	      0.31324496	     15.32253178	     -6.80102279	      3.19403280	    -68.68647983	     -1.47247143	    -14.44458667	      4.99318039	      2.21375820	     10.83647275	     -5.42960006	     -7.29586609	      2.31578570	     -0.32597359	     -1.36509111	     -1.11451525	     -3.68597631	     -0.48782778
      1.35000000	      4.12023690	      6.19345972	     -4.15991926	      0.23347586	      1.07244867	      0.31306227	     15.85107390	     -6.73247650	      3.37351963	    -68.42812391	     -0.72791461	    -14.35860734	      4.89281480	      1.80206127	     10.90647765	     -5.34783732	     -7.16094215	      2.58643641	     -0.27801591	     -1.42143874	     -1.17556176	     -3.73521034	     -0.59000300
      1.35416667	      4.12860778	      6.20006456	     -4.10826463	      0.23845478	      1.07285845	      0.31299992	     16.38464856	     -6.62186354	      3.57474022	    -68.05541745	     -0.54093795	    -14.34049773	      4.86709186	      1.41094792	     10.94075235	     -5.21584848	     -7.01320174	      2.64140688	     -0.21662640	     -1.43562655	     -1.25289862	     -3.72323823	     -0.63064001
      1.35833333	      4.17384905	      6.22300254	     -4.04257581	      0.24339704	      1.07327180	      0.31281521	     16.86550655	     -6.55172966	      3.74123815	    -67.67308602	      0.18363391	    -14.16293872	      4.76456578	      0.98575127	     11.00849193	     -5.09554611	     -6.87314823	      2.91180672	     -0.18561335	     -1.49985353	     -1.31312826	     -3.76057296	     -0.74891709
      1.36250000	      4.21210621	      6.25564259	     -4.01535906	      0.24834503	      1.07364554	      0.31270938	     17.34899551	     -6.47663926	      3.95547873	    -67.20655331	      0.44511122	    -14.08806917	      4.71461118	      0.55451573	     11.08507347	     -4.93070228	     -6.68905660	      2.99203568	     -0.12141829	     -1.53166501	     -1.37485122	     -3.74784965	     -0.81537558
      1.36666667	      4.24966703	      6.27102785	     -3.96488860	      0.25331199	      1.07401488	      0.31262621	     17.80161240	     -6.38298150	      4.14121434	    -66.68253573	      0.87608838	    -13.99797780	      4.65298130	      0.12302470	     11.13673323	     -4.77422545	     -6.52035826	      3.15241800	     -0.10755673	     -1.57319036	     -1.43849285	     -3.76956915	     -0.89485422
      1.37083333	      4.28838624	      6.28745862	     -3.90127869	      0.25827188	      1.07436183	      0.31255596	     18.23059283	     -6.29198960	      4.31180026	    -66.09784539	      1.27940163	    -13.87628608	      4.58643981	     -0.30959036	     11.18836071	     -4.61605244	     -6.35428670	      3.30010775	     -0.11066963	     -1.62062308	     -1.51829726	     -3.79884274	     -0.98183849
      1.37500000	      4.31635568	      6.29997094	     -3.83542548	      0.26325024	      1.07467391	      0.31248831	     18.65029586	     -6.19653418	      4.47466689	    -65.44957203	      1.60862423	    -13.77916343	      4.52782818	     -0.73475504	     11.23441300	     -4.45826648	     -6.17856437	      3.42067507	     -0.11906908	     -1.66377185	     -1.58477236	     -3.81724536	     -1.06151323
      1.37916667	      4.34379997	      6.32357389	     -3.76750557	      0.26822666	      1.07495498	      0.31243624	     19.05357736	     -6.11472581	      4.63224115	    -64.75103930	      1.94253141	    -13.69075444	      4.46619805	     -1.16184156	     11.29254244	     -4.28608885	     -5.99911435	      3.54698061	     -0.14978911	     -1.71073713	     -1.65148263	     -3.85537906	     -1.14464537
      1.38333333	      4.31607089	      6.33893629	     -3.68033342	      0.27318167	      1.07513262	      0.31248123	     19.49449800	     -6.00992531	      4.78036939	    -63.98311875	      2.10046317	    -13.67500440	      4.44486298	     -1.51238429	     11.32249917	     -4.19910879	     -5.85392126	      3.60224788	     -0.15746211	     -1.72674236	     -1.74459351	     -3.90450896	     -1.17552750
      1.38750000	      4.42091586	      6.34701358	     -3.57219673	      0.27816061	      1.07549245	      0.31228027	     19.75512993	     -5.95056903	      4.86027388	    -63.17058279	      2.62621699	    -13.52531406	      4.32498397	     -2.04301977	     11.38050407	     -3.89858953	     -5.65067395	      3.83902652	     -0.34032241	     -1.82565186	     -1.86549328	     -3.90402390	     -1.36567545
      1.39166667	      4.38826160	      6.38457171	     -3.52520305	      0.28314099	      1.07558235	      0.31235495	     20.17608268	     -5.86644126	      5.03842648	    -62.30628210	      2.72473171	    -13.52904555	      4.30459896	     -2.40243122	     11.44014317	     -3.78909163	     -5.46715454	      3.86004460	     -0.32594741	     -1.84127213	     -1.92810138	     -3.96764285	     -1.39150257
      1.39583333	      4.37540413	      6.41484286	     -3.48358183	      0.28816605	      1.07568921	      0.31242565	     20.54718541	     -5.77972208	      5.20418466	    -61.37720347	      2.86764615	    -13.55323516	      4.28089811	     -2.79696077	     11.49698989	     -3.64508269	     -5.25957335	      3.92143171	     -0.33751188	     -1.85955751	     -1.94554330	     -4.02998201	     -1.42443756
      1.40000000	      4.58588367	      6.41596217	     -3.34616734	      0.29307373	      1.07613352	      0.31206813	     20.62306413	     -5.76014376	      5.20056150	    -60.37162324	      3.10700376	    -13.54231194	      3.99219632	     -3.46585249	     11.56319694	     -3.15022952	     -4.99889381	      3.99308813	     -0.80313109	     -2.11506424	     -2.19563767	     -4.06293012	     -1.83488698
      1.40416667	      4.52267237	      6.45799414	     -3.30688964	      0.29809142	      1.07609631	      0.31220515	     21.01435394	     -5.68039870	      5.36227068	    -59.34961316	      3.21655910	    -13.59057021	      3.97095946	     -3.79700663	     11.62280880	     -3.07185083	     -4.80821576	      4.04196443	     -0.79672641	     -2.13136762	     -2.22359086	     -4.12236381	     -1.84533550
      1.40833333	      4.52068460	      6.49018129	     -3.27194807	      0.30321461	      1.07614536	      0.31221289	     21.30143714	     -5.61783385	      5.48113365	    -58.25849816	      3.33456368	    -13.72094251	      3.92259290	     -4.22784028	     11.69182616	     -2.88583003	     -4.56121038	      4.16108897	     -0.84102744	     -2.17006287	     -2.11069697	     -4.15796315	     -1.87990812
      1.41250000	      4.50981310	      6.51368773	     -3.19750850	      0.30829333	      1.07616749	      0.31220706	     21.56700000	     -5.55734065	      5.55679034	    -57.10341128	      3.39266223	    -13.89931205	      3.86019408	     -4.64302793	     11.74173964	     -2.66834375	     -4.33578626	      4.27583632	     -0.94013636	     -2.22157758	     -2.09306189	     -4.19249532	     -1.94056833
      1.41666667	      4.49435987	      6.53864385	     -3.11986962	      0.31336769	      1.07616095	      0.31221240	     21.81509752	     -5.50304945	      5.61813674	    -55.89276275	      3.39264700	    -14.10270950	      3.79360420	     -5.05285258	     11.79065537	     -2.45154112	     -4.11150142	      4.36163708	     -1.05835271	     -2.27754556	     -2.08739507	     -4.23479134	     -2.01401104
      1.42083333	      4.39388146	      6.60841703	     -3.07167348	      0.31836745	      1.07593348	      0.31229551	     22.16974741	     -5.47743065	      5.71178698	    -54.68155817	      3.45433361	    -14.17313930	      3.77588387	     -5.33972307	     11.88259538	     -2.39764207	     -3.91507216	      4.39936107	     -1.08518511	     -2.29122915	     -2.18839686	     -4.32454080	     -2.02883222
      1.42500000	      4.44988281	      6.57838659	     -2.89886367	      0.32349704	      1.07608398	      0.31208619	     22.24109934	     -5.42690830	      5.61553846	    -53.29056672	      3.13329716	    -14.83363781	      3.61609890	     -5.86204707	     11.87253447	     -1.91920427	     -3.66886664	      4.53284484	     -1.46012816	     -2.42728776	     -2.21188274	     -4.18797938	     -2.27281495
      1.42916667	      4.41508300	      6.63971442	     -2.88943054	      0.32852852	      1.07590539	      0.31222312	     22.47112555	     -5.39495998	      5.71889519	    -51.95346430	      3.14155871	    -14.96495488	      3.56603060	     -6.24165887	     11.95924490	     -1.80950716	     -3.43343533	      4.54083602	     -1.51149089	     -2.47131382	     -2.14317912	     -4.39208329	     -2.30336669
      1.43333333	      4.37658904	      6.66180219	     -2.83821332	      0.33365010	      1.07575495	      0.31229662	     22.64920690	     -5.34174228	      5.75832187	    -50.52703484	      3.04684155	    -15.21684482	      3.50129626	     -6.63197129	     11.99804704	     -1.64307361	     -3.20098261	      4.60222804	     -1.61736059	     -2.52549264	     -2.05190394	     -4.45202014	     -2.36888795
      1.43750000	      4.24322334	      6.74207435	     -2.81091512	      0.33868166	      1.07537675	      0.31243817	     22.94538246	     -5.33459319	      5.82962678	    -49.11000125	      3.07166344	    -15.32193855	      3.47939220	     -6.88719182	     12.09478374	     -1.59282547	     -3.00543611	      4.64017661	     -1.65090631	     -2.54220578	     -2.14241695	     -4.55451653	     -2.38309974
